<?xml version="1.0" encoding="utf-8"?>
<!-- Generator: Adobe Illustrator 18.1.1, SVG Export Plug-In . SVG Version: 6.00 Build 0)  -->
<svg version="1.1" id="Layer_1" xmlns="http://www.w3.org/2000/svg" xmlns:xlink="http://www.w3.org/1999/xlink" x="0px" y="0px"
	 viewBox="90 43.7 612 524.6" enable-background="new 90 43.7 612 524.6" xml:space="preserve">
<title>Untitled-2</title>
<path d="M205,434c-11.5-8-23.1-15.4-34-23.9c-28.4-21.8-51.9-47.9-66.4-81.1c-23.5-53.8-18.2-105.7,12.6-155.1
	c31.9-51.2,79.2-83.2,134.7-103.6c91.9-33.8,184.9-35.5,277.8-4.4C584,84.1,631.4,113.4,666.5,160c50.3,66.9,46.8,152.5-8.5,216
	c-44.8,51.4-102.8,79.3-167.8,94.7c-45.4,10.8-91.4,12.5-137.8,8.5c-3.9-0.3-9,2.1-12.2,4.8c-49.5,41.7-106.3,68-169.3,81.3
	c-5.7,1.2-11.6,1.9-17.4,2.8c-7.4,1.1-13.4-0.9-17.2-7.8c-3.8-6.9-2.4-13.1,2.3-18.9c5.4-6.6,11-13.1,16.9-19.2
	C179.5,497.6,196.6,467.3,205,434z"/>
</svg>
