<?xml version="1.0" encoding="utf-8"?>
<!-- Generator: Adobe Illustrator 18.1.1, SVG Export Plug-In . SVG Version: 6.00 Build 0)  -->
<svg version="1.1" id="Layer_1" xmlns="http://www.w3.org/2000/svg" xmlns:xlink="http://www.w3.org/1999/xlink" x="0px" y="0px"
	 viewBox="159.2 69.2 473.5 473.7" enable-background="new 159.2 69.2 473.5 473.7" xml:space="preserve">
<path fill="#FFFFFF" d="M396,69.2C265.6,69.2,159.2,175,159.2,306c0,130.4,105.9,236.8,236.8,236.8S632.8,436.4,632.8,306
	S526.4,69.2,396,69.2z M396,190.3c40.4,0,73.4,33,73.4,73.4s-33,73.4-73.4,73.4s-73.4-33-73.4-73.4S355.6,190.3,396,190.3z
	 M396,493.9c-45.3,0-86.3-15.9-118.7-42.2c33.7-37.3,75.3-57.5,118.7-57.5s85.1,20.2,118.7,57.5C482.3,478,441.3,493.9,396,493.9z"
	/>
</svg>
